<svg viewBox="0 0 41 51" xmlns="http://www.w3.org/2000/svg" xmlns:xlink="http://www.w3.org/1999/xlink" width="41.000000" height="51.000000" fill="none">
	<rect id="noun-map-8275581 1" width="41.000000" height="51.000000" x="0.000000" y="0.000000" />
	<path id="Vector 1" d="M34.7583 21.6705L34.7583 21.458L34.39 21.2735C34.3245 21.2381 34.2633 21.2219 34.1905 21.2145L29.8225 20.7364C29.8021 20.7364 29.7876 20.7334 29.7672 20.729L26.5626 20.0767C26.4461 20.0516 26.3384 20.0634 26.2292 20.1047L25.4037 20.4397C25.3833 20.4501 25.3629 20.4604 25.3411 20.4707L24.5112 20.9282C24.4762 20.9488 24.4456 20.9636 24.4078 20.9739L23.5124 21.2602C23.4949 21.2632 23.4818 21.2676 23.4672 21.2705L22.1423 21.5745C21.9254 21.6232 21.7157 21.5568 21.5716 21.3901L21.509 21.3163L21.8424 20.9297L21.7216 20.7939C21.5832 20.6375 21.391 20.5711 21.1887 20.6021L20.5102 20.7142C20.4214 20.7275 20.3457 20.76 20.2729 20.8116L19.6599 21.2337C19.5711 21.2971 19.5085 21.3694 19.4634 21.4668L19.1955 22.0394C19.1751 22.0777 19.1824 22.1235 19.2086 22.1619C19.2333 22.1973 19.277 22.2135 19.3192 22.2076L19.7735 22.1279C19.8245 22.1205 19.874 22.1412 19.8973 22.1869C19.922 22.2327 19.9147 22.2843 19.8798 22.3227L19.1634 23.1211C19.1183 23.1727 19.0703 23.2081 19.0091 23.2436L18.568 23.4841C18.4646 23.5431 18.386 23.6199 18.3306 23.7276L18.0584 24.247C18.0511 24.2603 18.0482 24.2721 18.0409 24.2854L17.7249 25.0114L18.0555 25.1398C18.2753 25.2269 18.5097 25.1782 18.6786 25.0114L19.2639 24.4256C19.3979 24.2928 19.5667 24.2337 19.7531 24.2588L20.2321 24.3252L20.3384 24.4477C20.5481 24.6912 20.9135 24.7192 21.1581 24.5112L21.8541 23.915L21.8745 23.9224C22.071 24.0124 22.1948 24.1836 22.2181 24.4005C22.2428 24.6174 22.1555 24.8152 21.9808 24.9406L21.905 24.9996L22.0011 25.0454C22.1773 25.1324 22.2938 25.2889 22.3215 25.4881L22.4146 26.0917C22.4248 26.1551 22.4423 26.2068 22.47 26.2658L23.1761 27.6958C23.1863 27.7164 23.1965 27.7312 23.2067 27.7518L23.2198 27.7696C23.3231 27.9334 23.4818 28.0278 23.6741 28.0411C23.8633 28.0544 24.0351 27.9821 24.1589 27.836L24.5826 27.3298C24.6889 27.2014 24.7369 27.0509 24.7209 26.8871C24.7034 26.7203 24.6277 26.5831 24.4967 26.4783L24.3249 26.3426L25.5435 26.5138C25.7197 26.5388 25.8594 26.6289 25.9526 26.7794L26.5583 27.7209C26.6617 27.8847 26.8233 27.9791 27.0155 27.9895C27.2077 27.9998 27.3766 27.923 27.5004 27.7725L27.7901 27.4169C27.8309 27.3652 27.8731 27.3269 27.9284 27.2914L27.9459 27.2811C28.0842 27.194 28.2313 27.166 28.3899 27.2044C28.5443 27.2398 28.668 27.3269 28.7554 27.4656L29.1165 28.0514C29.182 28.1562 29.2126 28.2684 29.2053 28.3938L29.1645 29.322C29.1543 29.4932 29.2126 29.6422 29.329 29.7618C29.4499 29.8843 29.5969 29.9433 29.7658 29.9403L30.7908 29.9049C31.0631 29.8975 31.2859 29.7101 31.3456 29.4415L31.4009 29.173L30.4924 29.4725C30.472 29.4799 30.4516 29.4858 30.4298 29.4902L29.9449 29.5921L29.859 29.3692C29.7906 29.1907 29.8081 29.0136 29.8998 28.8498L30.3715 28.0544C30.4472 27.9216 30.472 27.7858 30.44 27.6353L30.4123 27.4847C30.354 27.2029 30.5055 26.9225 30.7734 26.8177L31.2655 26.6259C31.5436 26.5182 31.6964 26.2216 31.6236 25.9323L31.28 24.5511L31.8886 24.4389C32.075 24.4035 32.222 24.2958 32.3079 24.1217L32.3968 23.9431C32.4856 23.7587 32.4827 23.5565 32.3764 23.3779L32.1696 23.0149C32.0692 22.8481 32.059 22.6593 32.139 22.4777C32.2148 22.2992 32.3633 22.1782 32.5526 22.1398L32.653 22.1147C32.9486 22.0557 33.2383 22.2224 33.3315 22.5117L33.3693 22.6238C33.4072 22.7493 33.48 22.8467 33.5834 22.9234L33.911 23.1566C33.9415 23.1817 33.9794 23.1846 34.0172 23.1743C34.0551 23.161 34.0799 23.133 34.09 23.0946L34.3623 22.1206C34.4002 21.9849 34.4759 21.8801 34.5894 21.796L34.7583 21.6735L34.7583 21.6705ZM18.1239 7.65L10.6343 16.3816L30.3669 16.3816L22.8803 7.65302C22.7216 7.97325 22.5017 8.26396 22.2338 8.49713C21.7694 8.90588 21.1637 9.15235 20.5027 9.15235C19.8562 9.15235 19.2637 8.91919 18.8021 8.52814C18.5197 8.28761 18.2853 7.99098 18.1236 7.64864L18.1239 7.65ZM9.50458 16.3816L17.8544 6.64775C17.8515 6.58135 17.8471 6.51937 17.8471 6.46329C17.8471 5.72398 18.1427 5.05105 18.6246 4.56556C19.1036 4.0771 19.7675 3.77756 20.4999 3.77756C21.2293 3.77756 21.8932 4.07712 22.3722 4.56556C22.8542 5.05108 23.1497 5.72398 23.1497 6.46329C23.1497 6.51937 23.1468 6.58135 23.1424 6.64775L31.4923 16.3816L36.8692 16.3816C37.4924 16.3816 38.0602 16.6398 38.4693 17.0545C38.8785 17.4692 39.1332 18.0447 39.1332 18.6763L39.1332 39.2591C39.1332 39.8907 38.8785 40.4662 38.4693 40.8809L38.4417 40.906C38.0325 41.3074 37.4778 41.5553 36.8692 41.5553L4.12587 41.5553C3.50271 41.5553 2.93781 41.2971 2.52576 40.8824C2.11661 40.4678 1.86182 39.8922 1.86182 39.2606L1.86182 18.6778C1.86182 18.0462 2.11661 17.4707 2.52576 17.056L2.55342 17.0309C2.96256 16.6295 3.51725 16.3816 4.12588 16.3816L9.50458 16.3816ZM38.2832 39.2594L38.2832 18.6766C38.2832 18.2826 38.1245 17.9269 37.8668 17.6642C37.612 17.406 37.2611 17.2451 36.8724 17.2451L4.12904 17.2451C3.75049 17.2451 3.40688 17.3986 3.15208 17.6465L3.13461 17.6642C2.8769 17.9254 2.7182 18.2811 2.7182 18.6766L2.7182 39.2594C2.7182 39.6505 2.8769 40.0091 3.13461 40.2673C3.3894 40.5285 3.7432 40.6894 4.12905 40.6894L36.8724 40.6894C37.2509 40.6894 37.5946 40.5359 37.8493 40.288L37.8697 40.2673C38.1245 40.0091 38.2832 39.6534 38.2832 39.2594L38.2832 39.2594ZM21.7725 5.17518C21.4449 4.84314 20.998 4.64096 20.5029 4.64096C20.0036 4.64096 19.5566 4.84313 19.229 5.17518C18.9057 5.50721 18.7019 5.96024 18.7019 6.46196C18.7019 6.51361 18.7048 6.55641 18.7048 6.59477C18.7077 6.63314 18.7121 6.67151 18.7179 6.70693L18.7281 6.794C18.8038 7.219 19.0309 7.59677 19.3484 7.86534C19.6585 8.12654 20.0603 8.28739 20.5015 8.28739C20.9528 8.28739 21.362 8.12063 21.675 7.84467C21.9909 7.56872 22.2122 7.18209 22.2778 6.74526C22.2778 6.73788 22.2778 6.73198 22.2807 6.7246C22.288 6.68624 22.2909 6.64049 22.2938 6.59622C22.2967 6.55785 22.2967 6.51653 22.2967 6.46341C22.2967 5.96168 22.0943 5.50718 21.7696 5.17662L21.7725 5.17518ZM36.5288 38.8091L36.5288 19.1261L4.47426 19.1261L4.47426 38.8091L36.5288 38.8091ZM37.382 18.694L37.382 39.2417C37.382 39.4793 37.1927 39.674 36.9554 39.674L4.04771 39.674C3.81329 39.674 3.62112 39.4792 3.62112 39.2417L3.62112 18.694C3.62112 18.4564 3.81331 18.2616 4.04771 18.2616L36.9554 18.2616C37.1927 18.2616 37.382 18.4564 37.382 18.694L37.382 18.694ZM24.0059 32.6347L24.0569 33.1748C24.0642 33.2265 24.102 33.2693 24.153 33.2796C24.2083 33.287 24.2564 33.2619 24.2797 33.2132L24.2928 33.1822C24.3932 32.9697 24.3612 32.7321 24.2171 32.5506L24.2098 32.5476C24.1748 32.5063 24.1239 32.4916 24.0758 32.5122C24.0278 32.5329 24.0001 32.5786 24.003 32.6347L24.0059 32.6347ZM33.3782 25.4067L33.0884 26.2434C33.0375 26.3659 33.0025 26.6138 33.1394 26.4913L33.4903 26.2404C33.7203 26.0766 33.7757 25.7623 33.649 25.5085L33.5908 25.3904C33.5704 25.3491 33.5252 25.324 33.4801 25.327C33.432 25.3299 33.3913 25.358 33.3767 25.4067L33.3782 25.4067ZM32.9923 30.9642C33.0171 30.9922 33.0404 31.0232 33.071 31.0483L33.5835 31.5087C33.6999 31.6106 33.8353 31.6593 33.9867 31.6548L34.5269 31.6415L34.5342 31.5619C34.5691 31.2859 34.4133 31.0276 34.1527 30.9332L33.3956 30.6572C33.3753 30.6499 33.3578 30.644 33.3374 30.6322L33.2792 30.6041C33.1787 30.5554 33.0651 30.5835 32.9967 30.6705C32.9283 30.7546 32.9239 30.8727 32.9938 30.9642L32.9923 30.9642ZM32.5031 32.1713L31.9863 32.4428C31.9615 32.4561 31.9411 32.4709 31.9178 32.4886L31.3194 32.9283C31.299 32.9416 31.2816 32.9534 31.2612 32.9638L30.8098 33.2191C30.6453 33.3135 30.5449 33.4596 30.5172 33.6485L30.4109 34.3568L30.4488 34.4749C30.4997 34.6593 30.6249 34.7921 30.7997 34.8585C30.9758 34.9249 31.1535 34.9072 31.3165 34.8098L31.3442 34.7921C31.5742 34.646 31.8639 34.677 32.0605 34.8689L32.1639 34.9707C32.2527 35.0577 32.3532 35.1109 32.474 35.1315L33.3476 35.2821C33.6301 35.3308 33.898 35.1743 33.9984 34.9013L34.3042 34.0425C34.3493 33.92 34.3522 33.802 34.3173 33.6795L34.1382 33.0375C34.1251 32.9888 34.1033 32.9475 34.0756 32.8974L33.8558 32.5211C33.7931 32.4133 33.6563 32.375 33.5456 32.431C33.4292 32.4945 33.3054 32.5107 33.17 32.4827C33.0157 32.4547 32.8919 32.375 32.8016 32.2451C32.7361 32.1433 32.6051 32.1123 32.5017 32.1713L32.5031 32.1713ZM23.6568 28.9646L22.8342 28.4171C22.7658 28.3714 22.7134 28.3227 22.6697 28.2533L21.5369 26.5504C21.5165 26.5194 21.4889 26.5017 21.4539 26.4987C21.419 26.4958 21.3884 26.5017 21.3651 26.5268L21.3375 26.5474C21.2312 26.6374 21.1103 26.6876 20.9691 26.6876C20.6735 26.695 20.4289 26.6743 20.1334 26.6492C19.8931 26.6286 19.6995 26.4707 19.6238 26.2405L19.5481 26.0029C19.535 25.9645 19.5073 25.9365 19.4694 25.9262C19.4316 25.9158 19.3908 25.9232 19.3632 25.9513L17.418 27.6542C17.2593 27.79 17.1908 27.9862 17.2214 28.1943L17.4107 29.3763C17.4354 29.5372 17.5141 29.6656 17.6451 29.76L17.8344 29.9032C17.9887 30.0183 18.1751 30.0463 18.357 29.9873L18.6948 29.8795C18.8288 29.8382 18.9569 29.8412 19.0865 29.8928L19.3413 29.9902C19.5378 30.0699 19.6689 30.2337 19.7024 30.4477L19.7883 30.9774C19.7955 31.0291 19.8086 31.0748 19.829 31.1235L20.0634 31.6503C20.1115 31.7581 20.1261 31.8628 20.1086 31.9824L20.0125 32.614C19.995 32.7114 20.0023 32.7984 20.0329 32.8929L20.2571 33.5599C20.26 33.5702 20.2644 33.585 20.2673 33.5953L20.4216 34.1856C20.4667 34.3568 20.5701 34.4851 20.7215 34.5619L20.9836 34.6947C21.2413 34.8275 21.5514 34.7508 21.7203 34.5132L22.7497 33.0729C22.7774 33.0345 22.7978 32.9962 22.8181 32.9504L23.0555 32.3601C23.0758 32.3114 23.0904 32.2657 23.0933 32.2096L23.2695 30.8077C23.2826 30.703 23.3175 30.6129 23.3831 30.5288L23.7034 30.0994C23.7383 30.0507 23.766 30.002 23.7864 29.9459L23.8868 29.6596C23.9829 29.4014 23.8897 29.1151 23.6597 28.9661L23.6568 28.9646ZM5.51096 22.1824L5.51096 22.3358L6.02055 22.5144C6.08607 22.5351 6.14431 22.5454 6.21274 22.5454L6.50539 22.5424C6.70486 22.5395 6.87375 22.6295 6.99023 22.7933L7.29599 23.236C7.41246 23.4028 7.43722 23.6064 7.3615 23.7983L7.08633 24.4889C7.03828 24.6069 7.02809 24.7265 7.06157 24.8548L7.38189 26.1461C7.39208 26.1874 7.40664 26.2228 7.42265 26.2612L7.87693 27.1894C7.90751 27.2484 7.93954 27.2942 7.98322 27.3399L9.01258 28.4068C9.07519 28.4703 9.13925 28.5146 9.22661 28.547L10.1453 28.8953C10.221 28.9233 10.2793 28.9617 10.3375 29.0178L10.933 29.58C11.0335 29.6774 11.0917 29.7925 11.1121 29.9327L11.3902 32.0046C11.4076 32.133 11.4586 32.2422 11.5489 32.3366L12.0789 32.8945C12.1546 32.9741 12.1997 33.0612 12.223 33.166L13.0806 36.7726C13.1053 36.8744 13.149 36.9541 13.2218 37.0338C13.5421 37.3968 13.6353 37.6122 13.8377 37.7141C13.9134 37.7525 14.0022 37.7731 14.1201 37.7805C14.1652 37.7835 14.2031 37.7628 14.2264 37.7289C14.2511 37.6934 14.2511 37.6492 14.2337 37.6108L14.1332 37.4012C14.0823 37.2935 14.0648 37.1887 14.0779 37.0736L14.2599 35.5005C14.2701 35.4209 14.2905 35.35 14.3327 35.2807L15.3548 33.4597C15.3752 33.4183 15.3926 33.3829 15.4028 33.3416L15.7231 32.2879C15.7406 32.2289 15.7508 32.1758 15.7508 32.1138L15.7435 31.4689C15.7435 31.2107 15.5892 30.9938 15.3446 30.9111L14.784 30.7222C14.6457 30.6765 14.5438 30.5938 14.4681 30.4669L14.1521 29.9298C14.059 29.7763 13.9177 29.6789 13.7386 29.6509L13.5567 29.6228C13.4023 29.5977 13.2786 29.5254 13.181 29.4029L13.1053 29.3011C13.0267 29.2037 12.9335 29.1373 12.8156 29.099L12.4166 28.9765C12.3992 28.9691 12.3817 28.9661 12.3657 28.9632L10.9228 28.6636C10.7816 28.6356 10.668 28.5662 10.5821 28.4511L10.4758 28.3154C10.4001 28.2209 10.3113 28.1589 10.1934 28.1206L9.9182 28.0306C9.74931 27.9745 9.62555 27.8594 9.55713 27.6956L9.55421 27.6852C9.48578 27.5185 9.49161 27.3429 9.57896 27.1791C9.66195 27.0182 9.79881 26.9135 9.97789 26.8795L10.8966 26.6906C10.9898 26.67 11.0655 26.6346 11.1412 26.5755L12.1982 25.7388C12.2084 25.7285 12.2157 25.7255 12.2259 25.7137L13.3106 24.7398L13.7474 24.3487C13.8988 24.213 13.9672 24.0211 13.9367 23.819C13.9061 23.6138 13.7823 23.453 13.596 23.3689L13.2757 23.2228C12.983 23.0944 12.6394 23.2228 12.504 23.5164L12.4152 23.7157L11.9638 23.3113C11.7542 23.1224 11.7061 22.8155 11.8474 22.572L11.958 22.3831C12.041 22.24 12.1677 22.1455 12.3264 22.1072L12.9117 21.967C12.9291 21.964 12.9423 21.9596 12.9568 21.9537L13.4184 21.8032C13.5698 21.7515 13.7183 21.7619 13.8595 21.8342L13.877 21.8415C13.925 21.8666 13.9833 21.8519 14.0182 21.8106C14.0532 21.7692 14.0532 21.7087 14.0211 21.6645L13.8217 21.4033C13.6877 21.2247 13.4781 21.1421 13.2568 21.1804L12.1211 21.3826C12.0352 21.3959 11.9624 21.3929 11.8809 21.3723L10.7583 21.0934C10.5589 21.0417 10.3667 21.0934 10.2182 21.2365L10.074 21.3723C9.96046 21.48 9.82214 21.5361 9.66782 21.5331L7.0136 21.508C6.94808 21.508 6.88984 21.5154 6.82723 21.539L5.90414 21.843C5.79057 21.8814 5.70176 21.9449 5.62896 22.0378L5.51248 22.1883L5.51096 22.1824Z" fill="rgb(0,6,44)" fill-rule="evenodd" />
	<path id="" />
	<path id="" />
</svg>
