<svg fill="none" xmlns:xlink="http://www.w3.org/1999/xlink" xmlns="http://www.w3.org/2000/svg" viewBox="22.229843039014376 22.755615959999997 51.6392726899384 48.734624399999994" style="max-height: 500px" width="51.6392726899384" height="48.734624399999994">
	<rect transform="matrix(0.879167,0.476513,-0.476513,0.879167,34.7378,0)" y="0.000000" x="0.000000" height="72.900002" width="66.824997" id="noun-plant-1148864-cropped 1"/>
	<path transform="matrix(0.879167,0.476513,-0.476513,0.879167,40.4097,11.4892)" fill-rule="nonzero" fill="rgb(0,6,44)" d="M35.0797 23.4188C35.6015 23.462 36.125 23.3581 36.5907 23.1188C37.3546 22.8629 38.1516 22.7194 38.9567 22.6928C39.5037 22.6605 40.0508 22.7537 40.5562 22.9654C41.0616 23.177 41.5119 23.5014 41.8727 23.9138C43.1411 25.2639 44.1801 26.8123 44.9487 28.4978C45.1016 28.8436 45.194 29.2131 45.2218 29.5902C45.2496 29.9673 45.2123 30.3463 45.1117 30.7108C44.6076 32.8952 43.4668 34.881 41.8337 36.4168C40.8697 37.3268 39.9057 38.2378 38.9007 39.1018C37.8007 40.0149 36.4835 40.6284 35.0767 40.8828C34.2437 41.0548 33.4367 41.3458 32.6077 41.5398C31.9307 41.6988 31.4977 42.2688 30.9077 42.5098C30.3177 42.7508 29.5857 42.6828 28.9797 42.9098C27.4409 43.5513 26.08 44.5551 25.0127 45.8358C24.4632 46.4249 23.9458 47.0432 23.4627 47.6878C22.8816 48.4924 22.3474 49.3298 21.8627 50.1958C21.2892 51.3971 20.5842 52.531 19.7607 53.5768C19.6798 53.7137 19.5652 53.8275 19.4277 53.9074C19.2902 53.9873 19.1345 54.0306 18.9756 54.0331C18.8166 54.0356 18.6596 53.9973 18.5197 53.9218C16.953 53.3843 15.4631 52.6448 14.0877 51.7218C12.7877 50.7798 11.4527 49.8838 10.2107 48.8498C8.50435 47.4168 7.0508 45.7073 5.9107 43.7928C5.3467 42.8618 4.7397 41.9578 4.1537 41.0398C4.03345 40.8967 3.93873 40.734 3.8737 40.5588C3.42378 38.9138 2.83223 37.3108 2.1057 35.7678C1.28201 33.7976 0.678348 31.7425 0.305698 29.6398C0.00235176 28.2234 -0.0758781 26.7681 0.0738811 25.3274C0.223644 23.8866 0.599525 22.4785 1.1877 21.1548C1.86933 19.6887 2.83182 18.3705 4.0207 17.2748C4.81799 16.515 5.78357 15.9545 6.8387 15.6388C7.85365 15.3611 8.92684 15.3793 9.93177 15.6913C10.9367 16.0033 11.8315 16.5961 12.5107 17.3998C14.7679 19.864 16.2116 22.9634 16.6457 26.2768C16.8857 27.8118 17.0357 29.3608 17.3077 30.9028C17.4198 30.0389 17.467 29.1678 17.4487 28.2968C17.3914 26.9229 17.4688 25.5466 17.6797 24.1878C17.7305 23.8597 17.7505 23.5276 17.7397 23.1958C17.8226 20.1658 18.1184 17.1454 18.6247 14.1568C19.0617 11.4853 19.9048 8.89637 21.1247 6.4798C22.0014 4.9619 23.1006 3.58393 24.3857 2.3918C26.1967 0.446802 28.5527 0.0748024 30.9997 0.0048008C32.3371 -0.0447559 33.6608 0.29014 34.8137 0.969801C35.1524 1.14055 35.4627 1.36249 35.7337 1.6278C36.5547 2.47753 37.2998 3.39736 37.9607 4.3768C39.2412 6.54436 40.0431 8.96076 40.3127 11.4638C40.4695 12.781 40.3866 14.1158 40.0681 15.4035C39.7495 16.6912 39.2005 17.9106 38.4477 19.0028C37.607 20.4346 36.5849 21.7518 35.4067 22.9218C35.2826 23.077 35.1731 23.2434 35.0797 23.4188ZM14.3497 21.5908C14.2138 21.8842 14.0322 22.1543 13.8117 22.3908C13.0757 22.9867 12.4349 23.6915 11.9117 24.4808C11.3947 25.2158 10.8807 25.9528 10.3807 26.6988C9.71753 27.6227 9.293 28.6962 9.14488 29.8237C8.99676 30.9513 9.12964 32.098 9.5317 33.1618C9.6107 33.3848 9.6847 33.6098 9.7727 33.8288C9.8607 34.0478 9.8897 34.2968 10.2607 34.2878C10.3407 34.1528 10.4477 34.0008 10.5277 33.8358C11.3376 32.0652 12.5531 30.5103 14.0757 29.2968C14.6213 28.8431 15.143 28.3615 15.6387 27.8538C15.8581 27.6712 16.0182 27.4274 16.0985 27.1535C16.1789 26.8796 16.1758 26.588 16.0897 26.3158C15.8897 25.5878 15.7967 24.8278 15.5727 24.1078C15.4015 23.1746 14.9715 22.3084 14.3317 21.6078C14.2475 21.1473 14.099 20.701 13.8907 20.2818C13.2821 19.3216 12.5825 18.4221 11.8017 17.5958C11.2937 17.0933 10.6835 16.7059 10.0126 16.46C9.34174 16.2141 8.62579 16.1154 7.91337 16.1706C7.20095 16.2257 6.50874 16.4335 5.8837 16.7798C5.74677 16.8258 5.62531 16.909 5.53286 17.02C5.4404 17.1309 5.38059 17.2654 5.36008 17.4084C5.33957 17.5514 5.35917 17.6973 5.4167 17.8298C5.47964 18.0583 5.55918 18.2819 5.6547 18.4988C6.24836 19.844 6.70079 21.2472 7.0047 22.6858C7.12196 23.0654 7.26086 23.438 7.4207 23.8018C8.10982 21.6363 8.9365 19.517 9.8957 17.4568C9.95369 17.5529 9.99381 17.6586 10.0141 17.7689C10.0345 17.8793 10.0347 17.9924 10.0147 18.1028C9.81004 18.8324 9.55475 19.5468 9.2507 20.2408C8.66177 21.4597 8.28223 22.7691 8.12799 24.114C7.97375 25.4589 8.04701 26.8202 8.3447 28.1408C8.40262 28.3281 8.47483 28.5106 8.5607 28.6868C8.7277 28.4988 8.8497 28.4148 8.8967 28.2998C9.79299 26.4146 10.9294 24.6533 12.2777 23.0598C12.6746 22.5887 13.1018 22.1441 13.5567 21.7288C13.6599 21.6291 13.7906 21.5626 13.932 21.538C14.0734 21.5134 14.2189 21.5318 14.3497 21.5908ZM23.4927 27.7588C23.9497 27.4588 24.1497 27.3398 24.3277 27.1988C25.0677 26.6098 25.8007 26.0118 26.5367 25.4168C28.9732 23.3757 31.7843 21.8292 34.8127 20.8638C35.4434 20.6628 36.0604 20.421 36.6597 20.1398C36.9636 20.0226 37.232 19.8286 37.4387 19.5768C38.2706 18.4245 38.9586 17.1749 39.4877 15.8558C39.5999 15.663 39.6571 15.443 39.6528 15.2199C39.6486 14.9969 39.5832 14.7792 39.4637 14.5908C39.2455 14.5636 39.0254 14.5542 38.8057 14.5628C37.2918 14.6711 35.8056 15.0254 34.4057 15.6118C32.5177 16.4848 30.6597 17.4218 28.8057 18.3708C28.2207 18.6708 27.7057 19.1068 27.1447 19.4568C26.2652 20.0254 25.5702 20.8378 25.1447 21.7948C24.9151 22.2607 24.7222 22.7439 24.5677 23.2398C24.2157 24.4178 23.8957 25.6068 23.5787 26.7948C23.5288 27.1139 23.5001 27.4359 23.4927 27.7588L23.4927 27.7588ZM26.0507 19.3078C26.3157 19.1548 26.5887 18.9938 26.8647 18.8368C28.0557 18.1598 29.2427 17.4738 30.4417 16.8108C31.0207 16.4908 31.6297 16.2248 32.2157 15.9108C33.9811 14.9915 35.8719 14.3365 37.8277 13.9668C38.2447 13.8848 38.6757 13.8668 39.0907 13.7838C39.2341 13.7703 39.3718 13.7213 39.4915 13.6411C39.6111 13.5609 39.7088 13.4521 39.7757 13.3245C39.8426 13.197 39.8767 13.0548 39.8747 12.9108C39.9608 11.8686 39.8019 10.8207 39.4107 9.8508C39.3847 9.67681 39.3086 9.51416 39.1917 9.38271C39.0748 9.25125 38.9221 9.15667 38.7523 9.11052C38.5826 9.06436 38.4031 9.06863 38.2357 9.1228C38.0483 9.14741 37.8638 9.19028 37.6847 9.2508C35.4957 10.0078 33.3047 10.7618 31.1217 11.5348C30.4977 11.7558 29.8937 12.0348 29.2837 12.2888C29.0434 12.3907 28.8214 12.5313 28.6267 12.7051C28.432 12.879 28.2671 13.0836 28.1387 13.3108C27.1094 15.1219 26.3634 17.0799 25.9267 19.1168C25.9187 19.1468 25.9727 19.1918 26.0507 19.3078L26.0507 19.3078ZM22.7677 26.4078L23.0847 26.3958C23.3917 25.4118 23.7317 24.4358 23.9997 23.4408C24.5749 21.8293 24.6824 20.0878 24.3097 18.4178C24.2618 18.1868 24.2284 17.953 24.2097 17.7178C23.831 15.72 23.2618 13.763 22.5097 11.8738C22.2646 11.2009 21.8215 10.618 21.2387 10.2018C21.121 10.0786 20.9694 9.99327 20.8031 9.95658C20.6367 9.9199 20.4632 9.93355 20.3047 9.9958C20.2179 10.0959 20.1427 10.2056 20.0807 10.3228C19.3356 12.4669 18.8476 14.6917 18.6267 16.9508C18.6212 17.0451 18.6212 17.1396 18.6267 17.2338C18.6178 17.4694 18.6516 17.7046 18.7264 17.9282C18.8012 18.1518 18.9158 18.36 19.0647 18.5428C19.4841 19.0537 19.85 19.6063 20.1567 20.1918C20.7737 21.4668 21.3177 22.7768 21.8877 24.0738C22.0587 24.4628 22.2267 24.8548 22.3767 25.2528C22.5217 25.6328 22.6387 26.0228 22.7677 26.4088L22.7677 26.4078ZM20.7917 8.8368C20.8467 8.9128 20.8847 9.0208 20.9587 9.0598C21.5568 9.40155 22.0768 9.86453 22.4855 10.419C22.8941 10.9736 23.1824 11.6074 23.3317 12.2798C23.9955 14.2041 24.5104 16.1766 24.8717 18.1798C24.9067 18.4408 24.8487 18.7698 25.2787 18.9398C25.4013 18.7645 25.5046 18.5764 25.5867 18.3788C26.0257 16.7801 26.6188 15.2279 27.3577 13.7438C27.4954 13.4461 27.5533 13.1177 27.5257 12.7908C27.5288 12.2689 27.445 11.7501 27.2777 11.2558C26.8177 10.0136 26.4863 8.72758 26.2887 7.4178C26.0887 6.3988 25.8277 5.3908 25.5797 4.3818C25.5081 4.05852 25.4015 3.74399 25.2617 3.4438C25.1415 3.2703 24.9955 3.11619 24.8287 2.9868C23.8095 3.65459 22.9295 4.51371 22.2375 5.51657C21.5454 6.51943 21.0544 7.64699 20.7917 8.8368ZM30.0587 37.4478C30.4687 36.9968 30.8657 36.5328 31.2917 36.0978C32.2844 35.0838 33.2844 34.0781 34.2917 33.0808C34.7881 32.6383 35.1726 32.0845 35.4137 31.4648C35.9711 29.7482 36.1201 27.9251 35.8487 26.1408C35.7841 25.7677 35.6805 25.4023 35.5397 25.0508C35.506 24.9104 35.4288 24.7842 35.319 24.6904C35.2093 24.5966 35.0726 24.5399 34.9287 24.5285C34.7848 24.517 34.6409 24.5515 34.5177 24.6268C33.7407 24.9678 32.9677 25.3198 32.2097 25.6998C31.9186 25.8582 31.6496 26.0542 31.4097 26.2828C30.8817 26.7568 30.3577 27.2368 29.8657 27.7478C29.6631 28 29.485 28.2709 29.3337 28.5568C30.1471 29.8622 30.649 31.3373 30.8007 32.8678C31.0177 34.4768 30.2017 35.8828 30.0587 37.4478ZM1.0147 25.9768C0.8897 26.2188 0.7827 26.3368 0.7707 26.4638C0.534569 28.1516 0.702156 29.8713 1.2597 31.4818C1.36182 31.8381 1.56271 32.1581 1.83913 32.405C2.11555 32.6519 2.45621 32.8154 2.8217 32.8768C4.1067 33.1618 5.3667 33.5638 6.6297 33.9408C7.3077 34.1408 7.9667 34.4038 8.6397 34.6228C8.8517 34.6918 9.0907 34.7908 9.2807 34.5338C8.9717 33.3558 8.6187 32.1828 8.3657 30.9878C8.28022 30.5476 8.10381 30.1301 7.84776 29.7619C7.59171 29.3938 7.26166 29.0831 6.8787 28.8498C6.0467 28.3118 5.2427 27.7228 4.3787 27.2408C3.34335 26.6188 2.20344 26.1905 1.0147 25.9768ZM16.1387 28.3768C14.176 29.6523 12.5609 31.3956 11.4387 33.4498C11.0152 34.1386 10.7546 34.915 10.6768 35.7198C10.599 36.5247 10.706 37.3366 10.9897 38.0938C11.2837 38.8408 11.4897 39.6198 11.7657 40.3758C11.8571 40.5646 11.9702 40.7422 12.1027 40.9048C12.2387 40.8478 12.2967 40.8418 12.3237 40.8048C12.4173 40.699 12.5001 40.5841 12.5707 40.4618C13.4246 38.6663 14.5698 37.0245 15.9597 35.6028C16.2832 35.2869 16.5262 34.898 16.6684 34.4687C16.8105 34.0395 16.8477 33.5824 16.7767 33.1358C16.6907 32.2908 16.6427 31.4418 16.5827 30.5938C16.561 29.835 16.4109 29.0854 16.1387 28.3768ZM11.2007 41.6568C11.2927 41.3978 11.3677 41.2978 11.3467 41.2278C10.8737 39.6898 10.3887 38.1558 9.9107 36.6188C9.83938 36.3672 9.70706 36.137 9.52546 35.9488C9.34387 35.7606 9.11862 35.6201 8.8697 35.5398C7.3547 34.9958 5.8467 34.4318 4.3267 33.9048C3.87634 33.757 3.41185 33.6565 2.9407 33.6048C2.64113 33.6073 2.34284 33.6442 2.0517 33.7148C2.11734 34.1092 2.21057 34.4985 2.3307 34.8798C2.9107 36.3298 3.5307 37.7658 4.1137 39.2138C4.18425 39.406 4.29656 39.5802 4.44252 39.7239C4.58849 39.8675 4.76448 39.9769 4.95783 40.0444C5.15118 40.1118 5.35708 40.1355 5.5607 40.1138C6.93791 40.1504 8.29346 40.4654 9.5457 41.0398C10.0647 41.2698 10.6027 41.4398 11.2057 41.6618L11.2007 41.6568ZM28.2847 11.9368C28.9316 11.0058 29.523 10.0375 30.0557 9.0368C30.1315 8.86323 30.1804 8.67911 30.2007 8.4908C30.4697 6.8568 30.7677 5.2258 30.9837 3.5848C31.0607 2.8334 31.0674 2.07645 31.0037 1.3238C31.0009 1.19406 30.9604 1.06794 30.8871 0.960846C30.8138 0.853756 30.7109 0.770338 30.5909 0.720783C30.471 0.671228 30.3392 0.657682 30.2117 0.681801C29.0826 0.786674 27.9633 0.978579 26.8637 1.2558C25.7047 1.6008 25.5927 2.2498 25.8357 3.0968C25.9007 3.3238 25.9357 3.5588 25.9907 3.7898C26.3344 5.01789 26.6042 6.26546 26.7987 7.5258C27.0905 9.05703 27.5905 10.5411 28.2847 11.9368ZM22.1387 33.5328C22.3677 33.4328 22.5257 33.4148 22.6077 33.3248C23.8306 32.0655 25.2206 30.98 26.7387 30.0988C27.1812 29.8241 27.5757 29.4789 27.9067 29.0768C29.2636 27.4323 30.8046 25.9489 32.4997 24.6558C33.4657 23.8968 34.3707 23.0558 35.2817 22.2318C35.4749 21.9831 35.6359 21.711 35.7607 21.4218C35.5233 21.4313 35.287 21.4587 35.0537 21.5038C33.4599 21.9667 31.921 22.6007 30.4637 23.3948C27.8454 24.9339 25.478 26.8646 23.4437 29.1198C23.1601 29.4351 22.9458 29.8065 22.8147 30.2098C22.5347 31.0638 22.3147 31.9388 22.1047 32.8098C22.0834 33.0512 22.0949 33.2944 22.1387 33.5328ZM4.5267 17.8128C4.27784 17.9605 4.0411 18.1277 3.8187 18.3128C2.35925 19.7422 1.3495 21.567 0.9137 23.5628C0.6287 24.8338 0.689699 25.0368 1.9357 25.4388C3.40435 25.9575 4.8067 26.6476 6.1137 27.4948C6.38931 27.6766 6.67586 27.8412 6.9717 27.9878C7.20645 28.0593 7.44815 28.1055 7.6927 28.1258C7.66285 27.1516 7.50035 26.1861 7.2097 25.2558C6.8946 24.4178 6.63897 23.5587 6.4447 22.6848C6.12725 21.1591 5.60978 19.682 4.9057 18.2918C4.79576 18.1198 4.66879 17.9593 4.5267 17.8128ZM30.9217 37.6128C31.13 37.6729 31.3437 37.7124 31.5597 37.7308C32.7811 37.6263 34.0093 37.6263 35.2307 37.7308C36.2681 37.7787 37.2981 37.9295 38.3057 38.1808C38.4848 38.2433 38.6777 38.2554 38.8632 38.2157C39.0488 38.176 39.2198 38.0861 39.3577 37.9558C40.3317 37.0628 41.3037 36.1678 42.2577 35.2558C42.3518 35.1874 42.4286 35.098 42.482 34.9946C42.5353 34.8913 42.5637 34.7768 42.5649 34.6605C42.566 34.5442 42.5399 34.4292 42.4887 34.3248C42.3486 34.2217 42.1977 34.1342 42.0387 34.0638C40.3331 33.4908 38.5361 33.2386 36.7387 33.3198C36.0746 33.3665 35.4381 33.604 34.9057 34.0038C34.5246 34.2773 34.1128 34.5051 33.6787 34.6828C33.2811 34.832 32.9289 35.0818 32.6567 35.4078C32.2567 35.8748 31.8347 36.3198 31.4417 36.7918C31.2525 37.0536 31.0786 37.326 30.9207 37.6078L30.9217 37.6128ZM26.2107 41.8898C26.9211 41.3178 27.5264 40.6265 27.9997 39.8468C28.9044 38.1845 29.6109 36.4218 30.1047 34.5948C30.2463 34.0931 30.2716 33.5657 30.1787 33.0528C30.0311 32.2156 29.8307 31.3887 29.5787 30.5768C29.4659 30.2665 29.3016 29.9775 29.0927 29.7218C29.0497 29.6496 28.9888 29.5897 28.916 29.5479C28.8431 29.5061 28.7607 29.4838 28.6767 29.4831C28.5927 29.4824 28.5099 29.5033 28.4363 29.5439C28.3628 29.5845 28.3009 29.6434 28.2567 29.7148C27.8237 30.2738 27.3717 30.8228 26.9817 31.4148C26.3817 32.3208 25.8247 33.2548 25.2537 34.1798C25.1132 34.3993 25.0354 34.653 25.0287 34.9135C25.022 35.174 25.0867 35.4314 25.2157 35.6578C25.7044 36.6106 26.0394 37.6347 26.2084 38.6922C26.3774 39.7496 26.3781 40.8271 26.2107 41.8848L26.2107 41.8898ZM21.2727 33.5198C21.5809 32.7973 21.8018 32.0406 21.9307 31.2658C22.2193 30.2138 22.3318 29.1212 22.2637 28.0325C22.1957 26.9437 21.948 25.8737 21.5307 24.8658C20.9547 23.5165 20.3657 22.1728 19.7637 20.8348C19.5982 20.4951 19.4049 20.1696 19.1857 19.8618C19.147 19.803 19.0983 19.7513 19.0419 19.7092C18.9855 19.6671 18.9221 19.6352 18.8547 19.6148C18.7417 19.5898 18.5297 19.6438 18.4927 19.7238C18.3971 19.937 18.3402 20.1656 18.3247 20.3988C18.2317 21.6728 18.1397 22.9458 18.0787 24.2218C18.0297 25.2618 18.0237 26.3048 18.0017 27.3468C17.9895 27.5834 18.0226 27.8201 18.0991 28.0443C18.1757 28.2685 18.2943 28.4761 18.4487 28.6558C19.255 29.65 19.9073 30.7597 20.3837 31.9478C20.6007 32.5113 20.9003 33.0395 21.2727 33.5148L21.2727 33.5198ZM20.2077 50.6768L20.4187 50.8118C20.6017 50.5478 20.7917 50.2888 20.9667 50.0198C21.9987 48.4318 22.9807 46.8088 24.0737 45.2638C24.7242 44.2787 25.1854 43.1809 25.4337 42.0268C25.6532 41.104 25.7116 40.1501 25.6061 39.2074C25.5005 38.2647 25.2328 37.3473 24.8147 36.4958C24.7517 36.3528 24.5827 36.2558 24.4417 36.1168C24.2907 36.2858 24.1417 36.3758 24.1157 36.4928C23.8157 37.8408 23.0157 38.9928 22.5927 40.2838C22.5039 40.6471 22.4418 41.0164 22.4067 41.3888C22.3687 41.6088 22.3937 41.9008 22.2617 42.0338C21.8535 42.5653 21.6154 43.2077 21.5787 43.8768C21.1467 45.8648 20.7497 47.8608 20.3427 49.8548C20.2867 50.1248 20.2527 50.4038 20.2077 50.6768ZM19.4707 42.0398C19.594 41.795 19.6996 41.5417 19.7867 41.2818C20.1167 39.7058 20.4777 38.1338 20.7347 36.5458C20.8387 35.8917 20.8142 35.2236 20.6627 34.5788C20.2587 32.9644 19.5392 31.4459 18.5457 30.1108C18.4547 29.9858 18.2647 29.9338 18.0177 29.7868C17.9342 30.0858 17.8674 30.3893 17.8177 30.6958C17.6247 32.6248 17.4487 34.5558 17.2567 36.4848C17.1756 37.0015 17.2314 37.5304 17.4187 38.0188C17.8907 39.1048 18.3377 40.2018 18.8257 41.2808C19.0102 41.5591 19.2266 41.8149 19.4707 42.0428L19.4707 42.0398ZM29.6707 11.1768C29.8102 11.2157 29.9556 11.2285 30.0997 11.2148C32.8637 10.2521 35.6247 9.2808 38.3827 8.3008C38.5507 8.21112 38.7061 8.09947 38.8447 7.9688C38.6733 7.07592 38.317 6.22878 37.7987 5.4818C37.6617 5.31198 37.4979 5.16571 37.3137 5.0488C35.5948 5.64734 33.9482 6.43625 32.4047 7.4008C31.8748 7.71206 31.4072 8.11895 31.0257 8.6008C30.5309 9.29104 30.0806 10.0122 29.6777 10.7598C29.6217 10.8558 29.6707 11.0148 29.6707 11.1768ZM5.2187 41.2128C5.87129 42.6518 6.68015 44.0146 7.6307 45.2768C7.80475 45.5289 8.04163 45.7312 8.31787 45.8636C8.59412 45.996 8.90016 46.054 9.2057 46.0318C10.4787 45.9798 11.7527 45.9448 13.0257 45.8918C13.1017 45.8918 13.1747 45.7918 13.2487 45.7408C13.0305 44.8342 12.642 43.9773 12.1037 43.2158C12.0099 43.1099 11.9003 43.0191 11.7787 42.9468C10.2007 41.9869 8.46201 41.3205 6.6467 40.9798C6.40711 40.9037 6.15296 40.8852 5.90486 40.9257C5.65676 40.9661 5.42169 41.0645 5.2187 41.2128ZM36.2257 31.0768C37.1118 30.7866 37.9065 30.2694 38.5307 29.5768C39.4757 28.1158 40.3837 26.6288 41.2737 25.1328C41.3637 25.0191 41.4174 24.881 41.4279 24.7364C41.4384 24.5919 41.4052 24.4474 41.3326 24.322C41.2599 24.1965 41.1513 24.0957 41.0207 24.0328C40.3268 23.5732 39.5062 23.3429 38.6745 23.3743C37.8428 23.4057 37.042 23.6972 36.3847 24.2078C36.6773 26.4924 36.6237 28.8081 36.2257 31.0768ZM30.9387 7.2248C31.4047 7.4698 31.6387 7.1608 31.9107 7.0118C33.0337 6.4118 34.1547 5.7988 35.2807 5.1998C35.6147 5.0218 35.9727 4.8898 36.2967 4.6998C36.5357 4.53031 36.7617 4.34311 36.9727 4.1398C36.4467 3.4828 36.0107 2.8638 35.4977 2.3168C34.752 1.57731 33.7948 1.08805 32.7587 0.916801C32.0887 0.773802 31.7147 1.0288 31.6997 1.6908C31.5521 3.29119 31.3147 4.88203 30.9887 6.4558C30.9507 6.7208 30.9517 6.9928 30.9387 7.2248ZM16.4627 36.2898C16.2337 36.435 16.0152 36.596 15.8087 36.7718C14.6333 38.0109 13.7183 39.473 13.1177 41.0718C12.8624 41.6919 12.8099 42.377 12.9677 43.0288C13.2813 44.06 13.7731 45.0283 14.4207 45.8898C14.5692 45.6731 14.7028 45.4466 14.8207 45.2118C14.994 44.6233 15.2148 44.0497 15.4807 43.4968C16.1003 42.5438 16.4344 41.4335 16.4437 40.2968C16.4437 40.1098 16.5157 39.9238 16.5277 39.7358C16.6216 38.5879 16.5998 37.4334 16.4627 36.2898ZM37.7027 39.1768C37.4281 38.956 37.1196 38.7808 36.7893 38.6581C36.4589 38.5354 36.1109 38.4668 35.7587 38.4548C34.6257 38.4248 33.4907 38.3948 32.3587 38.4318C31.7923 38.4527 31.2318 38.5537 30.6937 38.7318C30.2442 38.8691 29.8318 39.1067 29.4877 39.4268C28.7877 40.1268 28.1737 40.9048 27.5347 41.6598C27.4937 41.7088 27.5437 41.8348 27.5577 41.9928C28.6343 42.0578 29.7127 41.8988 30.7247 41.5258C32.3209 40.9402 33.9546 40.4622 35.6147 40.0948C36.3812 39.9844 37.1032 39.667 37.7027 39.1768ZM18.7027 51.3478C18.7885 51.0406 18.8583 50.7292 18.9117 50.4148C19.0717 48.5848 19.2247 46.7541 19.3707 44.9228C19.4152 44.4525 19.3334 43.9789 19.1337 43.5508C18.6157 42.4418 18.1507 41.3068 17.6537 40.1878C17.549 39.9943 17.4297 39.8091 17.2967 39.6338C17.1687 39.7838 17.0727 39.8468 17.0577 39.9248C16.9976 40.2003 16.9602 40.4802 16.9457 40.7618C16.823 43.0221 16.9258 45.2889 17.2527 47.5288C17.4067 48.9049 17.907 50.2194 18.7067 51.3498L18.7027 51.3478ZM9.3717 47.0478C9.55882 47.3174 9.76325 47.5746 9.9837 47.8178C11.9906 49.6246 14.2087 51.1819 16.5897 52.4558C16.6511 52.5113 16.7248 52.5516 16.8047 52.5731C16.8846 52.5947 16.9685 52.5971 17.0495 52.58C17.1305 52.5629 17.2063 52.5268 17.2707 52.4748C17.2617 52.3436 17.2278 52.2153 17.1707 52.0968C16.1237 50.6918 15.1908 49.2054 14.3807 47.6518C14.2463 47.3715 14.0353 47.1349 13.7722 46.9692C13.5091 46.8036 13.2046 46.7158 12.8937 46.7158C11.8547 46.6958 10.8137 46.7358 9.7747 46.7708C9.6657 46.7768 9.5577 46.9188 9.3757 47.0488L9.3717 47.0478ZM35.9387 32.4578C36.8727 32.5028 37.6517 32.5108 38.4247 32.5848C39.2678 32.6569 40.1063 32.7744 40.9367 32.9368C41.7077 33.0968 42.4567 33.3598 43.2757 33.5958C43.6436 33.2087 43.9214 32.745 44.0891 32.2379C44.2568 31.7308 44.3103 31.193 44.2457 30.6628C44.0807 30.5788 43.9997 30.5038 43.9147 30.4998C42.1377 30.3998 40.3427 30.0998 38.6417 30.9348C38.5578 30.9788 38.4653 31.0041 38.3707 31.0088C37.3137 31.0128 36.7387 31.7698 35.9387 32.4578ZM25.9267 31.5768C24.4797 32.3283 23.2242 33.4014 22.2567 34.7138C21.0737 36.0818 21.1917 37.9138 20.7097 39.5278C20.6687 39.6658 20.7597 39.8428 20.8097 40.1278C21.7802 39.4438 22.5487 38.5111 23.0347 37.4278C23.7145 35.6571 24.5818 33.9641 25.6217 32.3778C25.7439 32.1191 25.8458 31.8513 25.9267 31.5768ZM42.0387 25.3598C41.0348 26.3759 40.2173 27.5606 39.6237 28.8598C39.6059 28.9035 39.5918 28.9487 39.5817 28.9948C39.5536 29.0727 39.5452 29.1563 39.5574 29.2382C39.5696 29.3201 39.6019 29.3977 39.6514 29.464C39.701 29.5303 39.7663 29.5833 39.8414 29.6182C39.9165 29.653 39.999 29.6687 40.0817 29.6638C41.215 29.6331 42.3484 29.5968 43.4817 29.5548C43.6707 29.5538 43.8583 29.5231 44.0377 29.4638C44.1145 29.4423 44.184 29.4004 44.2389 29.3426C44.2937 29.2848 44.3319 29.2132 44.3493 29.1354C44.3667 29.0576 44.3627 28.9765 44.3377 28.9008C43.9002 27.5369 43.1066 26.3145 42.0387 25.3598ZM16.2387 43.8158C16.0007 44.0858 15.8667 44.1708 15.8327 44.2868C15.5647 45.1868 15.2977 46.0868 15.0727 47.0018C15.0544 47.1166 15.055 47.2336 15.0744 47.3482C15.0938 47.4627 15.1317 47.5734 15.1867 47.6758C15.7408 48.8731 16.4433 49.9959 17.2777 51.0178C17.3197 51.0658 17.4347 51.0498 17.5147 51.0628C17.2397 49.9328 16.9067 48.8138 16.7047 47.6708C16.4867 46.4718 16.3997 45.2508 16.2317 43.8158L16.2387 43.8158ZM21.6027 40.5908C21.1736 40.9354 20.8198 41.3644 20.563 41.8511C20.3062 42.3379 20.1519 42.8721 20.1097 43.4208C19.9747 44.6878 19.8807 45.9598 19.7827 47.2298C19.7547 47.5918 19.7827 47.9578 19.7827 48.3648C19.9197 48.3028 19.9927 48.2908 19.9987 48.2648C20.538 45.9201 21.0714 43.5748 21.5987 41.2288C21.6143 41.0164 21.6133 40.8031 21.5957 40.5908L21.6027 40.5908ZM26.5287 43.5318L26.5017 43.4048L26.3707 43.4358L26.4237 43.6208L26.5287 43.5318Z" id="Vector 2"/>
	<path transform="matrix(0.879167,0.476513,-0.476513,0.879167,-16.6785,72.1984)" fill-rule="nonzero" fill="rgb(0,6,44)" d="M1.8103 6.0647C1.58651 6.0647 1.38306 6.02075 1.19995 5.93286C1.01685 5.84416 0.858561 5.7168 0.725098 5.55078C0.591634 5.38395 0.489095 5.18457 0.41748 4.95264C0.345866 4.7207 0.310059 4.46151 0.310059 4.17505C0.310059 3.88859 0.34668 3.63021 0.419922 3.3999C0.493164 3.1696 0.596517 2.97306 0.72998 2.8103C0.863444 2.64673 1.02417 2.52181 1.21216 2.43555C1.40096 2.34847 1.61011 2.30493 1.8396 2.30493C2.04956 2.30493 2.23267 2.34928 2.38892 2.43799C2.54598 2.52588 2.67131 2.62476 2.76489 2.73462L2.65015 2.86035C2.5533 2.74642 2.43652 2.65446 2.2998 2.58447C2.16309 2.51449 2.00968 2.47949 1.8396 2.47949C1.56291 2.47949 1.32446 2.54867 1.12427 2.68701C0.924886 2.82536 0.771891 3.02148 0.665283 3.27539C0.558675 3.52848 0.505371 3.82837 0.505371 4.17505C0.505371 4.52173 0.558675 4.82365 0.665283 5.08081C0.771891 5.33716 0.923258 5.53613 1.11938 5.67773C1.31632 5.81934 1.54989 5.89014 1.82007 5.89014C2.00968 5.89014 2.17936 5.85189 2.3291 5.77539C2.47966 5.69808 2.62329 5.58293 2.76001 5.42993L2.87476 5.54956C2.73804 5.70988 2.58545 5.83602 2.41699 5.92798C2.24935 6.01912 2.04712 6.0647 1.8103 6.0647ZM3.6199 6L3.6199 3.3645L3.77005 3.3645L3.80057 3.86011L3.81033 3.86011C3.8966 3.69979 4.0032 3.56632 4.13016 3.45972C4.25711 3.35311 4.39871 3.2998 4.55496 3.2998C4.60135 3.2998 4.64448 3.30347 4.68436 3.31079C4.72505 3.3173 4.76696 3.33195 4.81009 3.35474L4.76492 3.51953C4.72179 3.50326 4.68517 3.49186 4.65506 3.48535C4.62495 3.47884 4.58344 3.47559 4.53055 3.47559C4.41336 3.47559 4.28803 3.52808 4.15457 3.63306C4.02192 3.73804 3.90392 3.92033 3.80057 4.17993L3.80057 6L3.6199 6ZM6.23524 6.0647C6.0147 6.0647 5.81288 6.00977 5.62978 5.8999C5.44667 5.79004 5.301 5.63257 5.19276 5.42749C5.08453 5.22241 5.03041 4.97664 5.03041 4.69019C5.03041 4.47371 5.06093 4.28044 5.12196 4.11035C5.18381 3.94027 5.26885 3.7946 5.37709 3.67334C5.48533 3.55127 5.60699 3.4585 5.74208 3.39502C5.87717 3.33154 6.01796 3.2998 6.16444 3.2998C6.36789 3.2998 6.54368 3.3466 6.69179 3.44019C6.84071 3.53377 6.95587 3.67131 7.03725 3.85278C7.11944 4.03426 7.16054 4.2548 7.16054 4.5144C7.16054 4.54126 7.16054 4.56893 7.16054 4.59741C7.16054 4.6259 7.15688 4.65845 7.14955 4.69507L5.21962 4.69507C5.21962 4.92537 5.26194 5.13127 5.34657 5.31274C5.43202 5.49422 5.55124 5.63745 5.70424 5.74243C5.85805 5.84741 6.0383 5.8999 6.24501 5.8999C6.39475 5.8999 6.52781 5.87834 6.64418 5.83521C6.76137 5.79207 6.87001 5.73348 6.97011 5.65942L7.04945 5.81445C6.95017 5.87467 6.83868 5.93164 6.71498 5.98535C6.59128 6.03825 6.43137 6.0647 6.23524 6.0647ZM5.21962 4.53027L6.98476 4.53027C6.98476 4.17301 6.90989 3.90609 6.76015 3.72949C6.61041 3.5529 6.41184 3.4646 6.16444 3.4646C6.00819 3.4646 5.86171 3.50732 5.72499 3.59277C5.58827 3.67741 5.47475 3.79907 5.38441 3.95776C5.2949 4.11564 5.23996 4.30648 5.21962 4.53027ZM8.37009 6.0647C8.23337 6.0647 8.10723 6.03988 7.99167 5.99023C7.87692 5.93978 7.78456 5.86206 7.71457 5.75708C7.64458 5.6521 7.60959 5.5166 7.60959 5.35059C7.60959 5.0568 7.74794 4.83423 8.02463 4.68286C8.30132 4.53068 8.7363 4.42122 9.32956 4.35449C9.33688 4.21126 9.32468 4.07251 9.29294 3.93823C9.2612 3.80314 9.19854 3.69043 9.10495 3.6001C9.01136 3.50977 8.87302 3.4646 8.68991 3.4646C8.50355 3.4646 8.33509 3.50163 8.18454 3.57568C8.0348 3.64893 7.9168 3.71851 7.83054 3.78442L7.7402 3.64038C7.79636 3.6005 7.87204 3.55371 7.96726 3.5C8.06247 3.44629 8.17233 3.3995 8.29685 3.35962C8.42217 3.31974 8.55645 3.2998 8.69968 3.2998C8.90638 3.2998 9.06874 3.34578 9.18674 3.43774C9.30555 3.52889 9.38897 3.64974 9.43698 3.80029C9.48581 3.95003 9.51022 4.11483 9.51022 4.29468L9.51022 6L9.36008 6L9.33444 5.64966L9.31979 5.64966C9.18633 5.75952 9.03863 5.85636 8.87668 5.94019C8.71555 6.02319 8.54668 6.0647 8.37009 6.0647ZM8.38474 5.8999C8.5418 5.8999 8.6952 5.86247 8.84494 5.7876C8.99468 5.71273 9.15622 5.60205 9.32956 5.45557L9.32956 4.50952C8.94951 4.55021 8.64678 4.60799 8.42136 4.68286C8.19675 4.75773 8.03602 4.84928 7.93918 4.95752C7.84315 5.06576 7.79514 5.19474 7.79514 5.34448C7.79514 5.54793 7.85332 5.69157 7.9697 5.77539C8.08688 5.8584 8.22523 5.8999 8.38474 5.8999ZM11.1098 6.0647C10.9463 6.0647 10.8193 6.03337 10.729 5.9707C10.6395 5.90723 10.5772 5.81812 10.5422 5.70337C10.5072 5.58781 10.4897 5.45353 10.4897 5.30054L10.4897 3.53052L10.0698 3.53052L10.0698 3.39014L10.4897 3.3645L10.5105 2.59546L10.6655 2.59546L10.6655 3.3645L11.4455 3.3645L11.4455 3.53052L10.6655 3.53052L10.6655 5.32495C10.6655 5.49504 10.6936 5.63338 10.7497 5.73999C10.8067 5.8466 10.9316 5.8999 11.1245 5.8999C11.1749 5.8999 11.2319 5.89176 11.2954 5.87549C11.3589 5.8584 11.4138 5.83805 11.4602 5.81445L11.52 5.9646C11.4435 5.99146 11.3674 6.01465 11.2917 6.03418C11.2168 6.05452 11.1562 6.0647 11.1098 6.0647ZM13.0202 6.0647C12.7997 6.0647 12.5979 6.00977 12.4148 5.8999C12.2317 5.79004 12.086 5.63257 11.9778 5.42749C11.8695 5.22241 11.8154 4.97664 11.8154 4.69019C11.8154 4.47371 11.8459 4.28044 11.907 4.11035C11.9688 3.94027 12.0539 3.7946 12.1621 3.67334C12.2703 3.55127 12.392 3.4585 12.5271 3.39502C12.6622 3.33154 12.803 3.2998 12.9494 3.2998C13.1529 3.2998 13.3287 3.3466 13.4768 3.44019C13.6257 3.53377 13.7409 3.67131 13.8222 3.85278C13.9044 4.03426 13.9455 4.2548 13.9455 4.5144C13.9455 4.54126 13.9455 4.56893 13.9455 4.59741C13.9455 4.6259 13.9419 4.65845 13.9346 4.69507L12.0046 4.69507C12.0046 4.92537 12.0469 5.13127 12.1316 5.31274C12.217 5.49422 12.3362 5.63745 12.4892 5.74243C12.643 5.84741 12.8233 5.8999 13.03 5.8999C13.1797 5.8999 13.3128 5.87834 13.4292 5.83521C13.5464 5.79207 13.655 5.73348 13.7551 5.65942L13.8345 5.81445C13.7352 5.87467 13.6237 5.93164 13.5 5.98535C13.3763 6.03825 13.2164 6.0647 13.0202 6.0647ZM12.0046 4.53027L13.7698 4.53027C13.7698 4.17301 13.6949 3.90609 13.5451 3.72949C13.3954 3.5529 13.1968 3.4646 12.9494 3.4646C12.7932 3.4646 12.6467 3.50732 12.51 3.59277C12.3733 3.67741 12.2597 3.79907 12.1694 3.95776C12.0799 4.11564 12.025 4.30648 12.0046 4.53027ZM15.5405 6.0647C15.32 6.0647 15.1279 6.01221 14.9643 5.90723C14.8016 5.80225 14.675 5.64722 14.5847 5.44214C14.4952 5.23706 14.4504 4.98641 14.4504 4.69019C14.4504 4.40698 14.5045 4.16121 14.6128 3.95288C14.721 3.74455 14.8642 3.58382 15.0425 3.4707C15.2207 3.35677 15.4164 3.2998 15.6296 3.2998C15.7899 3.2998 15.9315 3.32829 16.0544 3.38525C16.1781 3.44141 16.3067 3.52279 16.4402 3.62939L16.4255 3.13501L16.4255 2.03027L16.6049 2.03027L16.6049 6L16.4548 6L16.4304 5.64966L16.4194 5.64966C16.3095 5.75952 16.1814 5.85636 16.0349 5.94019C15.8884 6.02319 15.7236 6.0647 15.5405 6.0647ZM15.5551 5.8999C15.7081 5.8999 15.8554 5.86003 15.997 5.78027C16.1386 5.69971 16.2815 5.58781 16.4255 5.44458L16.4255 3.82471C16.2815 3.6945 16.1452 3.60213 16.0166 3.54761C15.8888 3.49227 15.7566 3.4646 15.6198 3.4646C15.4367 3.4646 15.2707 3.51994 15.1218 3.63062C14.9737 3.74048 14.8561 3.88778 14.769 4.07251C14.6828 4.25724 14.6396 4.46313 14.6396 4.69019C14.6396 4.93026 14.6754 5.14103 14.747 5.32251C14.8187 5.50399 14.9228 5.64559 15.0595 5.74731C15.1963 5.84904 15.3615 5.8999 15.5551 5.8999ZM19.74 6.0647C19.6163 6.0647 19.4837 6.03499 19.3421 5.97559C19.2005 5.91536 19.0682 5.83521 18.9453 5.73511L18.9295 5.73511L18.905 6L18.7549 6L18.7549 2.03027L18.9356 2.03027L18.9356 3.19971L18.9197 3.72949C19.0564 3.61312 19.2045 3.51261 19.364 3.42798C19.5244 3.34253 19.6863 3.2998 19.8499 3.2998C20.0899 3.2998 20.2881 3.35596 20.4444 3.46826C20.6014 3.57975 20.7182 3.7356 20.7947 3.93579C20.8712 4.13517 20.9094 4.37158 20.9094 4.64502C20.9094 4.94206 20.8553 5.19718 20.7471 5.4104C20.6389 5.62362 20.4964 5.78597 20.3198 5.89746C20.1432 6.00895 19.95 6.0647 19.74 6.0647ZM19.7547 5.8999C19.9418 5.8999 20.1078 5.8466 20.2527 5.73999C20.3976 5.63338 20.5115 5.48527 20.5945 5.29565C20.6783 5.10522 20.7202 4.88835 20.7202 4.64502C20.7202 4.42204 20.6909 4.22144 20.6323 4.04321C20.5737 3.86418 20.4802 3.72298 20.3516 3.61963C20.2238 3.51628 20.0517 3.4646 19.8352 3.4646C19.7018 3.4646 19.5589 3.50407 19.4068 3.58301C19.2554 3.66113 19.0983 3.77344 18.9356 3.91992L18.9356 5.54468C19.0853 5.67489 19.2334 5.76685 19.3799 5.82056C19.5264 5.87345 19.6513 5.8999 19.7547 5.8999ZM21.5649 7.21948C21.5217 7.21948 21.4766 7.2146 21.4294 7.20483C21.383 7.19507 21.3431 7.18164 21.3097 7.16455L21.3549 6.99976C21.3818 7.01359 21.4151 7.02458 21.455 7.03271C21.4949 7.04085 21.5348 7.04492 21.5746 7.04492C21.7415 7.04492 21.8814 6.97412 21.9946 6.83252C22.1085 6.69092 22.2021 6.51514 22.2753 6.30518L22.3498 6.05981L21.2597 3.3645L21.4599 3.3645L22.1252 5.08447C22.1683 5.1984 22.2155 5.32129 22.2668 5.45312C22.3189 5.58415 22.3701 5.70825 22.4206 5.82544L22.445 5.82544C22.4881 5.70825 22.5313 5.58415 22.5744 5.45312C22.6183 5.32129 22.6586 5.1984 22.6952 5.08447L23.2848 3.3645L23.4704 3.3645L22.4206 6.36987C22.3766 6.50659 22.3164 6.64006 22.2399 6.77026C22.1634 6.90047 22.0702 7.00789 21.9604 7.09253C21.8505 7.17716 21.7187 7.21948 21.5649 7.21948ZM25.1855 6L25.1855 2.36963L25.4797 2.36963L26.2549 4.55957C26.3053 4.69303 26.3554 4.82894 26.405 4.96729C26.4547 5.10563 26.5047 5.24316 26.5552 5.37988L26.5747 5.37988C26.6252 5.24316 26.6736 5.10563 26.72 4.96729C26.7663 4.82894 26.8131 4.69303 26.8603 4.55957L27.6404 2.36963L27.9346 2.36963L27.9346 6L27.7502 6L27.7502 3.49023C27.7502 3.39339 27.751 3.29085 27.7527 3.18262C27.7543 3.07438 27.7567 2.96452 27.76 2.85303C27.7633 2.74072 27.7665 2.63656 27.7698 2.54053L27.7502 2.54053L27.4695 3.34009L26.6553 5.59473L26.46 5.59473L25.6396 3.34009L25.3552 2.54053L25.3345 2.54053C25.3418 2.63656 25.3471 2.74072 25.3503 2.85303C25.3536 2.96452 25.356 3.07438 25.3577 3.18262C25.3593 3.29085 25.3601 3.39339 25.3601 3.49023L25.3601 6L25.1855 6ZM29.0355 6L29.0355 2.36963L30.985 2.36963L30.985 2.53442L29.2199 2.53442L29.2199 3.97974L30.7006 3.97974L30.7006 4.14453L29.2199 4.14453L29.2199 5.83521L31.0399 5.83521L31.0399 6L29.0355 6Z" id=""/>
	<path transform="matrix(0.879167,0.476513,-0.476513,0.879167,-19.061,76.5942)" fill-rule="nonzero" fill="rgb(0,6,44)" d="M0.550537 6L0.550537 2.72485C0.550537 2.55151 0.574544 2.4091 0.622559 2.29761C0.670573 2.18612 0.74056 2.10311 0.83252 2.04858C0.924479 1.99325 1.03353 1.96558 1.15967 1.96558C1.21663 1.96558 1.27686 1.9729 1.34033 1.98755C1.40381 2.0022 1.46688 2.02295 1.52954 2.0498L1.47461 2.20483C1.368 2.15194 1.26139 2.12549 1.15479 2.12549C1.00505 2.12549 0.895996 2.18042 0.827637 2.29028C0.759277 2.40015 0.725098 2.55355 0.725098 2.75049L0.725098 6L0.550537 6ZM0.185547 3.53052L0.185547 3.39014L0.550537 3.3645L1.3501 3.3645L1.3501 3.53052L0.185547 3.53052ZM1.9199 6L1.9199 3.3645L2.07005 3.3645L2.10057 3.86011L2.11033 3.86011C2.1966 3.69979 2.3032 3.56632 2.43016 3.45972C2.55711 3.35311 2.69871 3.2998 2.85496 3.2998C2.90135 3.2998 2.94448 3.30347 2.98436 3.31079C3.02505 3.3173 3.06696 3.33195 3.11009 3.35474L3.06492 3.51953C3.02179 3.50326 2.98517 3.49186 2.95506 3.48535C2.92495 3.47884 2.88344 3.47559 2.83055 3.47559C2.71336 3.47559 2.58803 3.52808 2.45457 3.63306C2.32192 3.73804 2.20392 3.92033 2.10057 4.17993L2.10057 6L1.9199 6ZM4.49984 6.0647C4.28988 6.0647 4.09579 6.01058 3.91757 5.90234C3.73935 5.79411 3.59693 5.63745 3.49032 5.43237C3.38371 5.22729 3.33041 4.9799 3.33041 4.69019C3.33041 4.39315 3.38371 4.14128 3.49032 3.93457C3.59693 3.72786 3.73935 3.57039 3.91757 3.46216C4.09579 3.35392 4.28988 3.2998 4.49984 3.2998C4.65691 3.2998 4.80624 3.33073 4.94784 3.39258C5.08944 3.45443 5.21436 3.54476 5.3226 3.66357C5.43083 3.78158 5.51588 3.92725 5.57772 4.10059C5.63957 4.27393 5.6705 4.47046 5.6705 4.69019C5.6705 4.9799 5.61597 5.22729 5.50692 5.43237C5.39869 5.63745 5.25627 5.79411 5.07968 5.90234C4.90308 6.01058 4.7098 6.0647 4.49984 6.0647ZM4.49984 5.8999C4.68702 5.8999 4.85466 5.84904 5.00277 5.74731C5.15089 5.64559 5.26807 5.50399 5.35434 5.32251C5.44141 5.14103 5.48495 4.93026 5.48495 4.69019C5.48495 4.44686 5.44141 4.23364 5.35434 4.05054C5.26807 3.86662 5.15089 3.72298 5.00277 3.61963C4.85466 3.51628 4.68702 3.4646 4.49984 3.4646C4.31348 3.4646 4.14584 3.51628 3.99691 3.61963C3.8488 3.72298 3.73202 3.86662 3.64657 4.05054C3.56194 4.23364 3.51962 4.44686 3.51962 4.69019C3.51962 4.93026 3.56194 5.14103 3.64657 5.32251C3.73202 5.50399 3.8488 5.64559 3.99691 5.74731C4.14584 5.84904 4.31348 5.8999 4.49984 5.8999ZM6.4899 6L6.4899 3.3645L6.64005 3.3645L6.67057 3.78442L6.68033 3.78442C6.79996 3.64852 6.93302 3.53377 7.0795 3.44019C7.2268 3.3466 7.37206 3.2998 7.51529 3.2998C7.73176 3.2998 7.89575 3.34985 8.00724 3.44995C8.11873 3.55005 8.19645 3.68351 8.24039 3.85034C8.39664 3.68026 8.54882 3.54598 8.69693 3.44751C8.84586 3.34904 8.99519 3.2998 9.14493 3.2998C9.40128 3.2998 9.59537 3.38241 9.72721 3.54761C9.85904 3.71281 9.92496 3.96509 9.92496 4.30444L9.92496 6L9.7504 6L9.7504 4.33008C9.7504 4.04036 9.69954 3.82389 9.59781 3.68066C9.49609 3.53662 9.33862 3.4646 9.1254 3.4646C8.99519 3.4646 8.86336 3.50814 8.72989 3.59521C8.59643 3.68148 8.45157 3.81128 8.29532 3.98462L8.29532 6L8.11954 6L8.11954 4.33008C8.11954 4.04036 8.06949 3.82389 7.96939 3.68066C7.87011 3.53662 7.71345 3.4646 7.49942 3.4646C7.37328 3.4646 7.24104 3.50814 7.10269 3.59521C6.96435 3.68148 6.82031 3.81128 6.67057 3.98462L6.67057 6L6.4899 6ZM12.7148 6.0647C12.5513 6.0647 12.4243 6.03337 12.334 5.9707C12.2445 5.90723 12.1822 5.81812 12.1472 5.70337C12.1122 5.58781 12.0947 5.45353 12.0947 5.30054L12.0947 3.53052L11.6748 3.53052L11.6748 3.39014L12.0947 3.3645L12.1155 2.59546L12.2705 2.59546L12.2705 3.3645L13.0505 3.3645L13.0505 3.53052L12.2705 3.53052L12.2705 5.32495C12.2705 5.49504 12.2986 5.63338 12.3547 5.73999C12.4117 5.8466 12.5366 5.8999 12.7295 5.8999C12.7799 5.8999 12.8369 5.89176 12.9004 5.87549C12.9639 5.8584 13.0188 5.83805 13.0652 5.81445L13.125 5.9646C13.0485 5.99146 12.9724 6.01465 12.8967 6.03418C12.8218 6.05452 12.7612 6.0647 12.7148 6.0647ZM13.7049 6L13.7049 2.03027L13.8856 2.03027L13.8856 3.19971L13.8856 3.79541C14.0255 3.65218 14.168 3.53377 14.3128 3.44019C14.4577 3.3466 14.6217 3.2998 14.8048 3.2998C15.0749 3.2998 15.2747 3.38241 15.4041 3.54761C15.5343 3.71281 15.5994 3.96509 15.5994 4.30444L15.5994 6L15.42 6L15.42 4.33008C15.42 4.04036 15.3708 3.82389 15.2723 3.68066C15.1738 3.53662 15.0115 3.4646 14.7852 3.4646C14.6217 3.4646 14.4723 3.50814 14.3372 3.59521C14.2021 3.68148 14.0516 3.81128 13.8856 3.98462L13.8856 6L13.7049 6ZM17.5552 6.0647C17.3347 6.0647 17.1329 6.00977 16.9498 5.8999C16.7667 5.79004 16.621 5.63257 16.5128 5.42749C16.4045 5.22241 16.3504 4.97664 16.3504 4.69019C16.3504 4.47371 16.3809 4.28044 16.442 4.11035C16.5038 3.94027 16.5889 3.7946 16.6971 3.67334C16.8053 3.55127 16.927 3.4585 17.0621 3.39502C17.1972 3.33154 17.338 3.2998 17.4844 3.2998C17.6879 3.2998 17.8637 3.3466 18.0118 3.44019C18.1607 3.53377 18.2759 3.67131 18.3572 3.85278C18.4394 4.03426 18.4805 4.2548 18.4805 4.5144C18.4805 4.54126 18.4805 4.56893 18.4805 4.59741C18.4805 4.6259 18.4769 4.65845 18.4696 4.69507L16.5396 4.69507C16.5396 4.92537 16.5819 5.13127 16.6666 5.31274C16.752 5.49422 16.8712 5.63745 17.0242 5.74243C17.178 5.84741 17.3583 5.8999 17.565 5.8999C17.7148 5.8999 17.8478 5.87834 17.9642 5.83521C18.0814 5.79207 18.19 5.73348 18.2901 5.65942L18.3695 5.81445C18.2702 5.87467 18.1587 5.93164 18.035 5.98535C17.9113 6.03825 17.7514 6.0647 17.5552 6.0647ZM16.5396 4.53027L18.3048 4.53027C18.3048 4.17301 18.2299 3.90609 18.0801 3.72949C17.9304 3.5529 17.7318 3.4646 17.4844 3.4646C17.3282 3.4646 17.1817 3.50732 17.045 3.59277C16.9083 3.67741 16.7947 3.79907 16.7044 3.95776C16.6149 4.11564 16.56 4.30648 16.5396 4.53027ZM20.3405 6L20.3405 2.36963L20.5346 2.36963L22.135 5.01489L22.55 5.73022L22.5744 5.73022C22.5647 5.55363 22.5573 5.3811 22.5525 5.21265C22.5476 5.04419 22.5451 4.87492 22.5451 4.70483L22.5451 2.36963L22.7246 2.36963L22.7246 6L22.5256 6L20.9301 3.35474L20.5151 2.6394L20.4956 2.6394C20.5021 2.80949 20.507 2.97469 20.5102 3.13501C20.5135 3.29533 20.5151 3.46216 20.5151 3.6355L20.5151 6L20.3405 6ZM24.7348 6.0647C24.5249 6.0647 24.3308 6.01058 24.1526 5.90234C23.9743 5.79411 23.8319 5.63745 23.7253 5.43237C23.6187 5.22729 23.5654 4.9799 23.5654 4.69019C23.5654 4.39315 23.6187 4.14128 23.7253 3.93457C23.8319 3.72786 23.9743 3.57039 24.1526 3.46216C24.3308 3.35392 24.5249 3.2998 24.7348 3.2998C24.8919 3.2998 25.0412 3.33073 25.1828 3.39258C25.3244 3.45443 25.4494 3.54476 25.5576 3.66357C25.6658 3.78158 25.7509 3.92725 25.8127 4.10059C25.8746 4.27393 25.9055 4.47046 25.9055 4.69019C25.9055 4.9799 25.851 5.22729 25.7419 5.43237C25.6337 5.63745 25.4913 5.79411 25.3147 5.90234C25.1381 6.01058 24.9448 6.0647 24.7348 6.0647ZM24.7348 5.8999C24.922 5.8999 25.0897 5.84904 25.2378 5.74731C25.3859 5.64559 25.5031 5.50399 25.5893 5.32251C25.6764 5.14103 25.72 4.93026 25.72 4.69019C25.72 4.44686 25.6764 4.23364 25.5893 4.05054C25.5031 3.86662 25.3859 3.72298 25.2378 3.61963C25.0897 3.51628 24.922 3.4646 24.7348 3.4646C24.5485 3.4646 24.3808 3.51628 24.2319 3.61963C24.0838 3.72298 23.967 3.86662 23.8816 4.05054C23.7969 4.23364 23.7546 4.44686 23.7546 4.69019C23.7546 4.93026 23.7969 5.14103 23.8816 5.32251C23.967 5.50399 24.0838 5.64559 24.2319 5.74731C24.3808 5.84904 24.5485 5.8999 24.7348 5.8999ZM27.4744 6.0647C27.205 6.0647 27.0053 5.98332 26.875 5.82056C26.7448 5.65698 26.6797 5.40348 26.6797 5.06006L26.6797 3.3645L26.8604 3.3645L26.8604 5.04053C26.8604 5.33024 26.9092 5.5459 27.0069 5.6875C27.1054 5.8291 27.2665 5.8999 27.4903 5.8999C27.653 5.8999 27.802 5.85433 27.9371 5.76318C28.0722 5.67122 28.2215 5.5284 28.3851 5.33472L28.3851 3.3645L28.5645 3.3645L28.5645 6L28.4095 6L28.3899 5.54956L28.3802 5.54956C28.2467 5.70337 28.1084 5.82788 27.9651 5.9231C27.8219 6.0175 27.6583 6.0647 27.4744 6.0647ZM29.6099 6L29.6099 3.3645L29.76 3.3645L29.7906 3.78442L29.8003 3.78442C29.9371 3.64852 30.077 3.53377 30.2203 3.44019C30.3635 3.3466 30.5267 3.2998 30.7098 3.2998C30.9799 3.2998 31.1797 3.38241 31.3091 3.54761C31.4393 3.71281 31.5044 3.96509 31.5044 4.30444L31.5044 6L31.325 6L31.325 4.33008C31.325 4.04036 31.2758 3.82389 31.1773 3.68066C31.0788 3.53662 30.9165 3.4646 30.6902 3.4646C30.5267 3.4646 30.3773 3.50814 30.2422 3.59521C30.1071 3.68148 29.9566 3.81128 29.7906 3.98462L29.7906 6L29.6099 6ZM33.6355 6L33.6355 2.36963L34.5096 2.36963C34.7863 2.36963 35.021 2.40218 35.2139 2.46729C35.4076 2.53239 35.5553 2.63656 35.657 2.77979C35.7587 2.92301 35.8096 3.11629 35.8096 3.35962C35.8096 3.59318 35.7596 3.78687 35.6595 3.94067C35.5602 4.09367 35.4153 4.20842 35.2249 4.28491C35.0353 4.36141 34.8037 4.39966 34.5303 4.39966L33.8199 4.39966L33.8199 6L33.6355 6ZM33.8199 4.23486L34.4656 4.23486C34.8522 4.23486 35.1394 4.16732 35.3274 4.03223C35.5154 3.89714 35.6094 3.67293 35.6094 3.35962C35.6094 3.04305 35.5134 2.82658 35.3213 2.71021C35.1301 2.59302 34.8379 2.53442 34.4449 2.53442L33.8199 2.53442L33.8199 4.23486ZM36.5999 6L36.5999 3.3645L36.75 3.3645L36.7806 3.86011L36.7903 3.86011C36.8766 3.69979 36.9832 3.56632 37.1102 3.45972C37.2371 3.35311 37.3787 3.2998 37.535 3.2998C37.5813 3.2998 37.6245 3.30347 37.6644 3.31079C37.705 3.3173 37.747 3.33195 37.7901 3.35474L37.7449 3.51953C37.7018 3.50326 37.6652 3.49186 37.6351 3.48535C37.6049 3.47884 37.5634 3.47559 37.5105 3.47559C37.3934 3.47559 37.268 3.52808 37.1346 3.63306C37.0019 3.73804 36.8839 3.92033 36.7806 4.17993L36.7806 6L36.5999 6ZM39.1798 6.0647C38.9699 6.0647 38.7758 6.01058 38.5976 5.90234C38.4193 5.79411 38.2769 5.63745 38.1703 5.43237C38.0637 5.22729 38.0104 4.9799 38.0104 4.69019C38.0104 4.39315 38.0637 4.14128 38.1703 3.93457C38.2769 3.72786 38.4193 3.57039 38.5976 3.46216C38.7758 3.35392 38.9699 3.2998 39.1798 3.2998C39.3369 3.2998 39.4862 3.33073 39.6278 3.39258C39.7694 3.45443 39.8944 3.54476 40.0026 3.66357C40.1108 3.78158 40.1959 3.92725 40.2577 4.10059C40.3196 4.27393 40.3505 4.47046 40.3505 4.69019C40.3505 4.9799 40.296 5.22729 40.1869 5.43237C40.0787 5.63745 39.9363 5.79411 39.7597 5.90234C39.5831 6.01058 39.3898 6.0647 39.1798 6.0647ZM39.1798 5.8999C39.367 5.8999 39.5347 5.84904 39.6828 5.74731C39.8309 5.64559 39.9481 5.50399 40.0343 5.32251C40.1214 5.14103 40.165 4.93026 40.165 4.69019C40.165 4.44686 40.1214 4.23364 40.0343 4.05054C39.9481 3.86662 39.8309 3.72298 39.6828 3.61963C39.5347 3.51628 39.367 3.4646 39.1798 3.4646C38.9935 3.4646 38.8258 3.51628 38.6769 3.61963C38.5288 3.72298 38.412 3.86662 38.3266 4.05054C38.2419 4.23364 38.1996 4.44686 38.1996 4.69019C38.1996 4.93026 38.2419 5.14103 38.3266 5.32251C38.412 5.50399 38.5288 5.64559 38.6769 5.74731C38.8258 5.84904 38.9935 5.8999 39.1798 5.8999ZM40.8 7.28052C40.7463 7.28052 40.6889 7.2736 40.6279 7.25977C40.5661 7.24674 40.5168 7.23169 40.4802 7.2146L40.5254 7.07056C40.5587 7.08032 40.6011 7.09172 40.6523 7.10474C40.7044 7.11857 40.7569 7.12549 40.8098 7.12549C40.9636 7.12549 41.0621 7.06852 41.1052 6.95459C41.1483 6.84147 41.1699 6.69987 41.1699 6.52979L41.1699 3.3645L41.3506 3.3645L41.3506 6.55054C41.3506 6.71655 41.3302 6.85368 41.2895 6.96191C41.2497 7.07096 41.189 7.15112 41.1076 7.20239C41.0263 7.25448 40.9237 7.28052 40.8 7.28052ZM41.2554 2.70044C41.2016 2.70044 41.1581 2.68213 41.1247 2.64551C41.0914 2.60889 41.0747 2.55884 41.0747 2.49536C41.0747 2.4384 41.0914 2.39242 41.1247 2.35742C41.1581 2.32243 41.2016 2.30493 41.2554 2.30493C41.305 2.30493 41.3473 2.32243 41.3823 2.35742C41.4173 2.39242 41.4348 2.4384 41.4348 2.49536C41.4348 2.55884 41.4173 2.60889 41.3823 2.64551C41.3473 2.68213 41.305 2.70044 41.2554 2.70044ZM43.3702 6.0647C43.1497 6.0647 42.9479 6.00977 42.7648 5.8999C42.5817 5.79004 42.436 5.63257 42.3278 5.42749C42.2195 5.22241 42.1654 4.97664 42.1654 4.69019C42.1654 4.47371 42.1959 4.28044 42.257 4.11035C42.3188 3.94027 42.4039 3.7946 42.5121 3.67334C42.6203 3.55127 42.742 3.4585 42.8771 3.39502C43.0122 3.33154 43.153 3.2998 43.2994 3.2998C43.5029 3.2998 43.6787 3.3466 43.8268 3.44019C43.9757 3.53377 44.0909 3.67131 44.1722 3.85278C44.2544 4.03426 44.2955 4.2548 44.2955 4.5144C44.2955 4.54126 44.2955 4.56893 44.2955 4.59741C44.2955 4.6259 44.2919 4.65845 44.2845 4.69507L42.3546 4.69507C42.3546 4.92537 42.3969 5.13127 42.4816 5.31274C42.567 5.49422 42.6862 5.63745 42.8392 5.74243C42.993 5.84741 43.1733 5.8999 43.38 5.8999C43.5297 5.8999 43.6628 5.87834 43.7792 5.83521C43.8964 5.79207 44.005 5.73348 44.1051 5.65942L44.1845 5.81445C44.0852 5.87467 43.9737 5.93164 43.85 5.98535C43.7263 6.03825 43.5664 6.0647 43.3702 6.0647ZM42.3546 4.53027L44.1198 4.53027C44.1198 4.17301 44.0449 3.90609 43.8951 3.72949C43.7454 3.5529 43.5468 3.4646 43.2994 3.4646C43.1432 3.4646 42.9967 3.50732 42.86 3.59277C42.7233 3.67741 42.6097 3.79907 42.5194 3.95776C42.4299 4.11564 42.375 4.30648 42.3546 4.53027ZM45.9796 6.0647C45.7566 6.0647 45.556 6.01058 45.3778 5.90234C45.1996 5.79411 45.0588 5.63745 44.9554 5.43237C44.8521 5.22729 44.8004 4.9799 44.8004 4.69019C44.8004 4.39315 44.8553 4.14128 44.9652 3.93457C45.0751 3.72786 45.2199 3.57039 45.3998 3.46216C45.5796 3.35392 45.7745 3.2998 45.9845 3.2998C46.1652 3.2998 46.3169 3.33398 46.4398 3.40234C46.5635 3.4707 46.6685 3.54639 46.7548 3.62939L46.64 3.76001C46.5537 3.677 46.4569 3.60701 46.3495 3.55005C46.2429 3.49308 46.1212 3.4646 45.9845 3.4646C45.7981 3.4646 45.6297 3.51628 45.4791 3.61963C45.3294 3.72298 45.2102 3.86662 45.1215 4.05054C45.0336 4.23364 44.9896 4.44686 44.9896 4.69019C44.9896 4.93026 45.0311 5.14103 45.1141 5.32251C45.1979 5.50399 45.3139 5.64559 45.462 5.74731C45.611 5.84904 45.7851 5.8999 45.9845 5.8999C46.1318 5.8999 46.2669 5.86938 46.3898 5.80835C46.5135 5.7465 46.6217 5.67204 46.7145 5.58496L46.8195 5.71558C46.7096 5.8116 46.5847 5.8938 46.4447 5.96216C46.3047 6.03052 46.1497 6.0647 45.9796 6.0647ZM48.1148 6.0647C47.9513 6.0647 47.8243 6.03337 47.734 5.9707C47.6445 5.90723 47.5822 5.81812 47.5472 5.70337C47.5122 5.58781 47.4947 5.45353 47.4947 5.30054L47.4947 3.53052L47.0748 3.53052L47.0748 3.39014L47.4947 3.3645L47.5155 2.59546L47.6705 2.59546L47.6705 3.3645L48.4505 3.3645L48.4505 3.53052L47.6705 3.53052L47.6705 5.32495C47.6705 5.49504 47.6986 5.63338 47.7547 5.73999C47.8117 5.8466 47.9366 5.8999 48.1295 5.8999C48.1799 5.8999 48.2369 5.89176 48.3004 5.87549C48.3639 5.8584 48.4188 5.83805 48.4652 5.81445L48.525 5.9646C48.4485 5.99146 48.3724 6.01465 48.2967 6.03418C48.2218 6.05452 48.1612 6.0647 48.1148 6.0647Z" id=""/>
</svg>