<svg xml:space="preserve" style="max-height: 500px" viewBox="7.95 8.2 84.75 85.5" y="0px" x="0px" version="1.1" xmlns:xlink="http://www.w3.org/1999/xlink" xmlns="http://www.w3.org/2000/svg" width="84.75" height="85.5"><path d="M50,10c-22.0556641,0-40,17.9438477-40,40s17.9443359,40,40,40s40-17.9438477,40-40S72.0556641,10,50,10z M50,88  c-20.953125,0-38-17.046875-38-38s17.046875-38,38-38s38,17.046875,38,38S70.953125,88,50,88z"/><path d="M37.5595703,34.4291992c-3.9628906,0-7.1875,4.2236328-7.1875,9.4155273s3.2246094,9.4155273,7.1875,9.4155273  s7.1875-4.2236328,7.1875-9.4155273S41.5224609,34.4291992,37.5595703,34.4291992z M37.5595703,51.2602539  c-2.8603516,0-5.1875-3.3266602-5.1875-7.4155273s2.3271484-7.4155273,5.1875-7.4155273s5.1875,3.3266602,5.1875,7.4155273  S40.4199219,51.2602539,37.5595703,51.2602539z"/><path d="M62.4404297,34.4291992c-3.9628906,0-7.1875,4.2236328-7.1875,9.4155273s3.2246094,9.4155273,7.1875,9.4155273  s7.1875-4.2236328,7.1875-9.4155273S66.4033203,34.4291992,62.4404297,34.4291992z M62.4404297,51.2602539  c-2.8603516,0-5.1875-3.3266602-5.1875-7.4155273s2.3271484-7.4155273,5.1875-7.4155273s5.1875,3.3266602,5.1875,7.4155273  S65.3007812,51.2602539,62.4404297,51.2602539z"/><path d="M34.7695312,27.6645508c-0.3818359-0.3989258-1.0146484-0.4116211-1.4140625-0.0297852l-7.3769531,7.0727539  c-0.3984375,0.3818359-0.4121094,1.0151367-0.0292969,1.4135742c0.1962891,0.2050781,0.4589844,0.3081055,0.7216797,0.3081055  c0.2490234,0,0.4980469-0.0922852,0.6923828-0.2783203l7.3769531-7.0727539  C35.1386719,28.6962891,35.1523438,28.0629883,34.7695312,27.6645508z"/><path d="M66.6445312,27.6347656c-0.3994141-0.3818359-1.03125-0.3691406-1.4140625,0.0297852  c-0.3828125,0.3984375-0.3691406,1.0317383,0.0292969,1.4135742l7.3769531,7.0727539  c0.1943359,0.1860352,0.4433594,0.2783203,0.6923828,0.2783203c0.2626953,0,0.5253906-0.1030273,0.7216797-0.3081055  c0.3828125-0.3984375,0.3691406-1.0317383-0.0292969-1.4135742L66.6445312,27.6347656z"/><path d="M43.9042969,58.0214844c-0.5527344,0-1,0.4477539-1,1s0.4472656,1,1,1  c6.1708984,0,11.1914062,5.0205078,11.1914062,11.1914062c0,0.5522461,0.4472656,1,1,1s1-0.4477539,1-1  C57.0957031,63.9389648,51.1777344,58.0214844,43.9042969,58.0214844z"/><text font-family="'Helvetica Neue', Helvetica, Arial-Unicode, Arial, Sans-serif" font-weight="bold" font-size="5px" fill="#000000" y="115" x="0">Created by Made x Made Icons</text><text font-family="'Helvetica Neue', Helvetica, Arial-Unicode, Arial, Sans-serif" font-weight="bold" font-size="5px" fill="#000000" y="120" x="0">from the Noun Project</text></svg>